<svg viewBox="0 0 284.5 86.7" xmlns="http://www.w3.org/2000/svg" xmlns:xlink="http://www.w3.org/1999/xlink" id="Layer_1" overflow="hidden"><g><g><g><g><path d="M43.1 85.9 33.2 69.3C33.2 69.3 32.9 68.9 32.9 68.3L32.9 67.9 32.9 67.1 32.9 37.6 29.1 37.6 29.1 68.4 29.1 69.3C29.4 69.6 35.7 80.3 35.7 80.3L20.2 80.3C20.2 80.3 26.5 69.6 26.8 69.3L26.8 68.4 26.8 37.6 23 37.6 23 67.1 23 67.9 23 68.3C23 68.9 22.7 69.3 22.7 69.3L12.8 85.9 43.1 85.9Z" fill="#996600"/></g><g><path d="M40 16.1C40 16.1 41.9 8.4 35.2 3.3 35.2 3.3 32.5 0.9 27.5 0.9 23 0.9 20.3 3.3 20.3 3.3 14.2 7.6 15.8 16.1 15.8 16.1L40 16.1Z" fill="#996600"/><path d="M16.5 18.2 39.4 18.2C39.6 17.8 39.7 17.3 39.9 16.9L16 16.9C16.1 17.3 16.3 17.8 16.5 18.2Z" fill="#996600"/><path d="M39 19 16.8 19C17 19.5 17.3 19.9 17.6 20.3L38.2 20.3C38.5 19.9 38.7 19.5 39 19Z" fill="#996600"/><path d="M19.1 22.2 36.7 22.2C37 21.9 37.3 21.5 37.6 21.1L18.2 21.1C18.5 21.5 18.8 21.9 19.1 22.2Z" fill="#996600"/><path d="M21 23.8 34.8 23.8C35.2 23.6 35.5 23.3 35.8 23L20 23C20.3 23.3 20.6 23.6 21 23.8Z" fill="#996600"/><path d="M22.9 24.9C24.4 25.6 26.1 26 27.9 26 29.7 26 31.4 25.6 32.9 24.9L22.9 24.9Z" fill="#996600"/></g><path d="M51.6 26.5 32.9 26.5C32.9 26.5 31.2 26.5 29.8 27.4 28.7 28.1 28 29.8 27.9 29.9L27.9 29.9C27.9 29.8 27.1 28.1 26 27.4 24.6 26.5 22.9 26.5 22.9 26.5L4.2 26.5 0.5 32.5 17.6 32.5C17.6 32.5 18.1 32.5 18.4 32.6 18.9 32.7 19.8 33 20.7 33.6 22 34.5 22.3 35 22.6 35.3 22.8 35.5 23.2 36 23.2 36L27.4 36 27.9 36 27.9 36 29.3 36 32.5 36C32.5 36 32.9 35.5 33.1 35.3 33.4 35 33.8 34.5 35 33.6 35.9 32.9 36.8 32.7 37.3 32.6 37.6 32.5 38.1 32.5 38.1 32.5L55.2 32.5 51.6 26.5Z" fill="#003366"/><g><g><path d="M2.4 34.3 2.4 62.4C2.4 62.4 2.4 62.7 2.4 62.8 2.4 63.1 2.4 63.4 2.4 63.6 2.7 66.6 3.6 68.8 5.4 71.7 8.1 76.3 13.1 79.5 13.1 79.5L15.4 75.8C15.4 75.8 12.2 74.1 9.7 70.2 9.2 69.4 8.7 68.7 8.3 68 8 67.3 7.7 66.8 7.5 66.2 7.4 65.8 7.2 65.4 7.1 65 7.1 64.4 7.1 64 7 63.6 7 63.4 7 62.7 7 62.7L7 62.6 7 34.3 2.4 34.3Z" fill="#003366"/><path d="M9.5 34.3 9.5 62.6C9.5 62.6 9.5 62.7 9.5 62.8 9.5 62.9 9.5 63.1 9.5 63.3 9.5 63.4 9.5 63.5 9.5 63.6 9.6 64 9.7 64.4 9.9 65 10.2 66 10.8 67.1 11.6 68.4 13.7 71.8 16.7 73.3 16.7 73.3L19 69.6C19 69.6 18.2 69.2 17.3 68.3 16.7 67.7 15.9 66.9 15.3 66 14.7 65 14.3 64.1 14.1 63.3 14 62.9 14 62.4 14 62.1 14 61.8 14 61.7 14 61.7L14 34.3 9.5 34.3Z" fill="#003366"/></g><g><path d="M53.5 34.3 53.5 62.4C53.5 62.4 53.5 62.7 53.5 62.8 53.5 63.1 53.5 63.4 53.5 63.6 53.2 66.6 52.3 68.8 50.5 71.7 47.8 76.3 42.8 79.5 42.8 79.5L40.5 75.8C40.5 75.8 43.7 74.1 46.2 70.2 46.7 69.4 47.2 68.7 47.6 68 47.9 67.3 48.2 66.8 48.4 66.2 48.5 65.8 48.7 65.4 48.8 65 48.9 64.5 49 64.1 49 63.6 49 63.4 49 62.7 49 62.7L49 62.6 49 34.3 53.5 34.3Z" fill="#003366"/><path d="M46.3 34.3 46.3 62.6C46.3 62.6 46.3 62.7 46.3 62.8 46.3 62.9 46.3 63.1 46.3 63.3 46.3 63.4 46.3 63.5 46.3 63.6 46.2 64 46.1 64.4 45.9 65 45.6 66 45 67.1 44.2 68.4 42.1 72 39 73.5 39 73.5L36.7 69.8C36.7 69.8 37.5 69.4 38.4 68.5 39 67.9 39.8 67.1 40.4 66.2 41 65.2 41.4 64.3 41.6 63.5 41.8 62.9 41.8 62.4 41.8 62.1 41.8 61.8 41.8 61.7 41.8 61.7L41.8 34.3 46.3 34.3Z" fill="#003366"/></g></g></g></g><g><g><path d="M70.8 15.9 69 15.9 69 3.2 65.6 3.2 65.6 1.5 74.2 1.5 74.2 3.1 70.8 3.1 70.8 15.9Z" fill="#003366"/><path d="M84.3 7.3 84.3 1.5 86.1 1.5 86.1 15.9 84.3 15.9 84.3 9 77.5 9 77.5 15.9 75.7 15.9 75.7 1.5 77.5 1.5 77.5 7.3 84.3 7.3Z" fill="#003366"/><path d="M88.9 1.5 96.6 1.5 96.6 3.1 90.7 3.1 90.7 7.1 96.5 7.1 96.5 8.7 90.7 8.7 90.7 14.1 96.6 14.1 96.6 15.7 88.9 15.7 88.9 1.5Z" fill="#003366"/><path d="M113.2 7.3 113.2 1.5 115 1.5 115 15.9 113.2 15.9 113.2 9 106.4 9 106.4 15.9 104.6 15.9 104.6 1.5 106.4 1.5 106.4 7.3 113.2 7.3Z" fill="#003366"/><path d="M131.8 8.7C131.8 13 128.4 16.2 124.3 16.2 120.1 16.2 116.8 13 116.8 8.7 116.8 4.6 120.2 1.2 124.3 1.2 128.4 1.2 131.8 4.6 131.8 8.7ZM130 8.7C130 5.5 127.6 2.9 124.3 2.9 120.9 2.9 118.6 5.6 118.6 8.7 118.6 12 121.2 14.5 124.3 14.5 127.4 14.5 130 12 130 8.7Z" fill="#003366"/><path d="M133.6 0.8 144.4 12.1 144.4 1.5 146.2 1.5 146.2 16.5 135.4 5.2 135.4 15.9 133.6 15.9 133.6 0.8Z" fill="#003366"/><path d="M162 8.7 162 9.3C162 13.2 159.2 16.3 155.2 16.3 151.2 16.3 147.9 12.8 147.9 8.8 147.9 4.7 151.2 1.3 155.4 1.3 157.6 1.3 159.8 2.3 161.3 4.1L160 5.2C159 3.8 157.2 2.9 155.5 2.9 152.3 2.9 149.8 5.5 149.8 8.7 149.8 11.7 152.3 14.6 155.4 14.6 157.6 14.6 160 12.7 160.1 10.3L156.4 10.3 156.4 8.7 162 8.7Z" fill="#003366"/><path d="M177.6 1.5 179.9 1.5 173.5 8 180.1 15.9 177.7 15.9 172.3 9.2 171.6 9.9 171.6 15.9 169.8 15.9 169.8 1.5 171.6 1.5 171.6 7.7 177.6 1.5Z" fill="#003366"/><path d="M195.4 8.7C195.4 13 192 16.2 187.9 16.2 183.7 16.2 180.4 13 180.4 8.7 180.4 4.6 183.8 1.2 187.9 1.2 192 1.2 195.4 4.6 195.4 8.7ZM193.6 8.7C193.6 5.5 191.2 2.9 187.9 2.9 184.5 2.9 182.2 5.6 182.2 8.7 182.2 12 184.8 14.5 187.9 14.5 191 14.5 193.6 12 193.6 8.7Z" fill="#003366"/><path d="M197.2 0.8 208 12.1 208 1.5 209.8 1.5 209.8 16.5 199 5.2 199 15.9 197.2 15.9 197.2 0.8Z" fill="#003366"/><path d="M225.6 8.7 225.6 9.3C225.6 13.2 222.8 16.3 218.8 16.3 214.8 16.3 211.5 12.8 211.5 8.8 211.5 4.7 214.8 1.3 219 1.3 221.2 1.3 223.4 2.3 224.9 4.1L223.6 5.3C222.6 3.9 220.8 3 219.1 3 215.9 3 213.4 5.6 213.4 8.8 213.4 11.8 215.9 14.7 219 14.7 221.2 14.7 223.6 12.8 223.7 10.4L220 10.4 220 8.7 225.6 8.7Z" fill="#003366"/></g><g><g><g><path d="M86.4 77.3 86.4 77.9C86.4 81.9 83.6 84.9 79.6 84.9 75.6 84.9 72.3 81.4 72.3 77.4 72.3 73.3 75.6 69.8 79.8 69.8 82 69.8 84.3 70.8 85.7 72.6L84.4 73.8C83.4 72.4 81.6 71.4 79.9 71.4 76.7 71.4 74.1 74 74.1 77.2 74.1 80.2 76.6 83.1 79.7 83.1 81.9 83.1 84.3 81.2 84.4 78.8L80.7 78.8 80.7 77.2 86.4 77.2Z" fill="#003366"/><path d="M89.9 70.2 89.9 78.7C89.9 81.1 90.6 83.2 93.4 83.2 96.2 83.2 96.9 81 96.9 78.7L96.9 70.2 98.7 70.2 98.7 79.3C98.7 82.5 96.7 84.9 93.4 84.9 90.1 84.9 88.1 82.5 88.1 79.3L88.1 70.2 89.9 70.2Z" fill="#003366"/><path d="M103.3 81 101.7 84.6 99.8 84.6 106.7 69.6 113.6 84.6 111.7 84.6 110 81 103.3 81ZM106.7 73.5 104.1 79.3 109.2 79.3 106.7 73.5Z" fill="#003366"/><path d="M114.7 69.5 125.5 80.8 125.5 70.2 127.3 70.2 127.3 85.2 116.5 73.9 116.5 84.6 114.7 84.6 114.7 69.5Z" fill="#003366"/><path d="M143.2 77.3 143.2 77.9C143.2 81.9 140.4 84.9 136.4 84.9 132.4 84.9 129.1 81.4 129.1 77.4 129.1 73.3 132.4 69.8 136.6 69.8 138.8 69.8 141.1 70.8 142.5 72.6L141.2 73.8C140.2 72.4 138.4 71.4 136.7 71.4 133.5 71.4 130.9 74 130.9 77.2 130.9 80.2 133.4 83.1 136.5 83.1 138.7 83.1 141.1 81.2 141.2 78.8L137.5 78.8 137.5 77.2 143.2 77.2Z" fill="#003366"/><path d="M154.2 83 154.2 84.6 144 84.6 151.3 71.8 145 71.8 145 70.2 154.2 70.2 146.9 83 154.2 83Z" fill="#003366"/><path d="M164.4 76 164.4 70.2 166.2 70.2 166.2 84.6 164.4 84.6 164.4 77.7 157.5 77.7 157.5 84.6 155.7 84.6 155.7 70.2 157.5 70.2 157.5 76 164.4 76Z" fill="#003366"/><path d="M183.1 77.4C183.1 81.7 179.7 84.9 175.5 84.9 171.3 84.9 167.9 81.7 167.9 77.4 167.9 73.3 171.3 69.9 175.5 69.9 179.7 69.9 183.1 73.3 183.1 77.4ZM181.3 77.4C181.3 74.2 178.9 71.6 175.5 71.6 172.1 71.6 169.7 74.3 169.7 77.4 169.7 80.7 172.3 83.2 175.5 83.2 178.7 83.2 181.3 80.7 181.3 77.4Z" fill="#003366"/><path d="M186.6 70.2 186.6 78.7C186.6 81.1 187.3 83.2 190.1 83.2 192.9 83.2 193.6 81 193.6 78.7L193.6 70.2 195.4 70.2 195.4 79.3C195.4 82.5 193.4 84.9 190.1 84.9 186.8 84.9 184.8 82.5 184.8 79.3L184.8 70.2 186.6 70.2Z" fill="#003366"/></g></g><path d="M70 68.9C69.2 70.4 68.7 71.6 68.3 72.5 67.8 74.1 67.5 75.7 67.5 77.4 67.5 80.1 68.3 83 69.9 85.9L68.6 85.9C67.7 84.7 67 83.4 66.4 81.8 65.8 80.3 65.5 78.8 65.5 77.3 65.5 75.3 66 73.3 67 71.3 67.5 70.3 68.1 69.4 68.5 68.8L70 68.8Z" fill="#003366"/><path d="M203 77.4C203 79.4 202.5 81.4 201.5 83.4 201 84.4 200.5 85.2 200 85.9L198.7 85.9C199.5 84.4 200 83.2 200.4 82.3 200.9 80.7 201.2 79.1 201.2 77.4 201.2 74.7 200.4 71.8 198.8 68.9L200.1 68.9C201 70.1 201.7 71.4 202.3 73 202.7 74.5 203 76 203 77.4Z" fill="#003366"/></g><g><path d="M67.4 24.4 67.4 32.9C67.4 35.2 68.1 37.4 70.9 37.4 73.7 37.4 74.4 35.2 74.4 32.9L74.4 24.4 76.2 24.4 76.2 33.5C76.2 36.7 74.2 39.1 70.9 39.1 67.6 39.1 65.6 36.7 65.6 33.5L65.6 24.4 67.4 24.4Z" fill="#003366"/><path d="M78.9 23.7 89.7 35 89.7 24.4 91.5 24.4 91.5 39.4 80.7 28.1 80.7 38.8 78.9 38.8 78.9 23.7Z" fill="#003366"/><path d="M96.7 38.8 95 38.8 95 24.4 96.8 24.4 96.8 38.8Z" fill="#003366"/><path d="M104.4 35.1 108.7 24.5 110.7 24.5 104.5 39.7 98.2 24.5 100.2 24.5 104.4 35.1Z" fill="#003366"/><path d="M112 24.4 119.7 24.4 119.7 26 113.8 26 113.8 30 119.6 30 119.6 31.6 113.8 31.6 113.8 37 119.7 37 119.7 38.6 112 38.6 112 24.4Z" fill="#003366"/><path d="M131.1 38.8 128.9 38.8 124.7 32.7 124 32.7 124 38.8 122.2 38.8 122.2 24.4 124.4 24.4C125.7 24.4 127.1 24.4 128.2 25.1 129.4 25.8 130.1 27.2 130.1 28.5 130.1 30.6 128.7 32.3 126.6 32.5L131.1 38.8ZM124 31.2 124.6 31.2C126.4 31.2 128.4 30.9 128.4 28.6 128.4 26.3 126.3 26 124.5 26L124 26 124 31.2Z" fill="#003366"/><path d="M139.4 27.1C138.9 26.2 138.2 25.7 137.1 25.7 136 25.7 134.7 26.5 134.7 27.7 134.7 28.8 135.8 29.4 136.7 29.8L137.7 30.2C139.7 31 141.3 32.1 141.3 34.5 141.3 37.1 139.3 39 136.7 39 134.4 39 132.6 37.3 132.3 35L134.1 34.6C134.1 36.2 135.3 37.3 136.9 37.3 138.4 37.3 139.6 36 139.6 34.5 139.6 33 138.4 32.3 137.1 31.8L136.1 31.4C134.5 30.7 133 29.8 133 27.8 133 25.5 135.1 24.1 137.2 24.1 138.8 24.1 140.1 24.9 140.9 26.3L139.4 27.1Z" fill="#003366"/><path d="M145.4 38.8 143.6 38.8 143.6 24.4 145.4 24.4 145.4 38.8Z" fill="#003366"/><path d="M152.6 38.8 150.8 38.8 150.8 26 147.4 26 147.4 24.4 156 24.4 156 26 152.6 26 152.6 38.8Z" fill="#003366"/><path d="M156.6 24.4 158.7 24.4 162.2 30.5 165.7 24.4 167.8 24.4 163.1 32.5 163.1 38.8 161.3 38.8 161.3 32.5 156.6 24.4Z" fill="#003366"/><path d="M189.4 31.6C189.4 35.9 186 39.1 181.9 39.1 177.7 39.1 174.4 35.9 174.4 31.6 174.4 27.5 177.8 24.1 181.9 24.1 186 24.1 189.4 27.5 189.4 31.6ZM187.6 31.6C187.6 28.4 185.2 25.8 181.9 25.8 178.5 25.8 176.2 28.5 176.2 31.6 176.2 34.9 178.8 37.4 181.9 37.4 184.9 37.4 187.6 34.9 187.6 31.6Z" fill="#003366"/><path d="M193.3 26 193.3 30 198.3 30 198.3 31.6 193.3 31.6 193.3 38.7 191.5 38.7 191.5 24.4 198.5 24.4 198.5 26 193.3 26Z" fill="#003366"/><path d="M213.7 27.1C213.2 26.2 212.5 25.7 211.4 25.7 210.3 25.7 209 26.5 209 27.7 209 28.8 210.1 29.4 211 29.8L212 30.2C214 31 215.6 32.1 215.6 34.5 215.6 37.1 213.6 39 211 39 208.7 39 206.9 37.3 206.6 35L208.4 34.6C208.4 36.2 209.6 37.3 211.2 37.3 212.7 37.3 213.9 36 213.9 34.5 213.9 33 212.7 32.3 211.4 31.8L210.4 31.4C208.8 30.7 207.3 29.8 207.3 27.8 207.3 25.5 209.4 24.1 211.5 24.1 213.1 24.1 214.4 24.9 215.2 26.3L213.7 27.1Z" fill="#003366"/><path d="M228.7 27.2C227.7 26.3 226.3 25.8 224.9 25.8 221.7 25.8 219.2 28.5 219.2 31.7 219.2 34.8 221.6 37.5 224.8 37.5 226.2 37.5 227.6 37 228.6 36L228.6 38.1C227.5 38.7 226.1 39.1 224.8 39.1 220.7 39.1 217.3 35.8 217.3 31.7 217.3 27.4 220.7 24.1 225 24.1 226.3 24.1 227.5 24.4 228.6 25.1L228.6 27.2Z" fill="#003366"/><path d="M233.4 38.8 231.6 38.8 231.6 24.4 233.4 24.4 233.4 38.8Z" fill="#003366"/><path d="M236.9 24.4 244.6 24.4 244.6 26 238.7 26 238.7 30 244.5 30 244.5 31.6 238.7 31.6 238.7 37 244.6 37 244.6 38.6 236.9 38.6 236.9 24.4Z" fill="#003366"/><path d="M247.6 23.7 258.4 35 258.4 24.4 260.2 24.4 260.2 39.4 249.4 28.1 249.4 38.8 247.6 38.8 247.6 23.7Z" fill="#003366"/><path d="M273.5 27.2C272.5 26.3 271.1 25.8 269.7 25.8 266.5 25.8 264 28.5 264 31.7 264 34.8 266.4 37.5 269.6 37.5 271 37.5 272.4 37 273.4 36L273.4 38.1C272.3 38.7 270.9 39.1 269.6 39.1 265.5 39.1 262.1 35.8 262.1 31.7 262.1 27.4 265.5 24.1 269.8 24.1 271.1 24.1 272.3 24.4 273.4 25.1L273.4 27.2Z" fill="#003366"/><path d="M276.1 24.4 283.8 24.4 283.8 26 277.9 26 277.9 30 283.7 30 283.7 31.6 277.9 31.6 277.9 37 283.8 37 283.8 38.6 276.1 38.6 276.1 24.4Z" fill="#003366"/></g><g><g><path d="M118.8 61.7 117 61.7 117 48.9 113.6 48.9 113.6 47.3 122.2 47.3 122.2 48.9 118.8 48.9 118.8 61.7Z" fill="#003366"/><path d="M123.8 47.3 131.5 47.3 131.5 48.9 125.6 48.9 125.6 52.9 131.4 52.9 131.4 54.5 125.6 54.5 125.6 60 131.5 60 131.5 61.6 123.8 61.6 123.8 47.3Z" fill="#003366"/><path d="M144.4 50C143.4 49.1 142 48.6 140.6 48.6 137.4 48.6 134.9 51.3 134.9 54.5 134.9 57.6 137.3 60.3 140.5 60.3 141.9 60.3 143.3 59.8 144.3 58.8L144.3 61C143.2 61.6 141.8 62 140.5 62 136.4 62 133 58.7 133 54.6 133 50.3 136.4 47 140.7 47 142 47 143.2 47.3 144.3 48L144.3 50Z" fill="#003366"/><path d="M155.2 53.1 155.2 47.3 157 47.3 157 61.7 155.2 61.7 155.2 54.8 148.4 54.8 148.4 61.7 146.6 61.7 146.6 47.3 148.4 47.3 148.4 53.1 155.2 53.1Z" fill="#003366"/><path d="M159.6 46.6 170.4 57.9 170.4 47.3 172.2 47.3 172.2 62.3 161.4 51 161.4 61.7 159.6 61.7 159.6 46.6Z" fill="#003366"/><path d="M189 54.5C189 58.8 185.6 62 181.5 62 177.3 62 174 58.8 174 54.5 174 50.4 177.4 47 181.5 47 185.6 47 189 50.4 189 54.5ZM187.2 54.5C187.2 51.3 184.8 48.7 181.5 48.7 178.1 48.7 175.8 51.4 175.8 54.5 175.8 57.8 178.4 60.3 181.5 60.3 184.6 60.3 187.2 57.8 187.2 54.5Z" fill="#003366"/><path d="M192.8 60 197.2 60 197.2 61.6 191 61.6 191 47.3 192.8 47.3 192.8 60Z" fill="#003366"/><path d="M212.6 54.5C212.6 58.8 209.2 62 205.1 62 200.9 62 197.6 58.8 197.6 54.5 197.6 50.4 201 47 205.1 47 209.2 47 212.6 50.4 212.6 54.5ZM210.8 54.5C210.8 51.3 208.4 48.7 205.1 48.7 201.7 48.7 199.4 51.4 199.4 54.5 199.4 57.8 202 60.3 205.1 60.3 208.1 60.3 210.8 57.8 210.8 54.5Z" fill="#003366"/><path d="M227.6 54.4 227.6 55C227.6 58.9 224.8 62 220.8 62 216.8 62 213.5 58.5 213.5 54.5 213.5 50.4 216.8 47 221 47 223.2 47 225.4 48 226.9 49.8L225.6 51C224.6 49.6 222.8 48.7 221.1 48.7 217.9 48.7 215.4 51.3 215.4 54.5 215.4 57.5 217.9 60.4 221 60.4 223.2 60.4 225.6 58.5 225.7 56.1L222 56.1 222 54.5 227.6 54.5Z" fill="#003366"/><path d="M228.1 47.3 230.2 47.3 233.7 53.4 237.2 47.3 239.3 47.3 234.6 55.4 234.6 61.7 232.8 61.7 232.8 55.4 228.1 47.3Z" fill="#003366"/></g><g><path d="M69.1 58.7 67.5 62.3 65.6 62.3 72.5 47.3 79.4 62.3 77.5 62.3 75.9 58.7 69.1 58.7ZM72.4 51.3 69.8 57.1 75 57.1 72.4 51.3Z" fill="#003366"/><path d="M80.9 47.3 91.7 58.6 91.7 47.9 93.5 47.9 93.5 62.9 82.7 51.6 82.7 62.3 80.9 62.3 80.9 47.3Z" fill="#003366"/><path d="M96.3 47.9 99.3 47.9C103.7 47.9 107.4 50.2 107.4 55 107.4 59.9 103.8 62.3 99.3 62.3L96.4 62.3 96.4 47.9ZM98 60.7 98.6 60.7C102.3 60.7 105.4 59.3 105.4 55.1 105.4 50.9 102.2 49.5 98.6 49.5L98 49.5 98 60.7Z" fill="#003366"/></g></g></g></g></svg>