<svg viewBox="0 0 500.4 55" xmlns="http://www.w3.org/2000/svg" xmlns:xlink="http://www.w3.org/1999/xlink" id="圖層_1" xml:space="preserve" overflow="hidden"><g><g><path d="M44 15.5 42.5 15.5 42.5 5.1 39.7 5.1 39.7 3.8 46.7 3.8 46.7 5.1 43.9 5.1 44 15.5 44 15.5Z" fill="#003366"/><path d="M54.9 8.5 54.9 3.8 56.4 3.8 56.4 15.5 54.9 15.5 54.9 9.9 49.3 9.9 49.3 15.5 47.8 15.5 47.8 3.8 49.3 3.8 49.3 8.5 54.9 8.5 54.9 8.5Z" fill="#003366"/><path d="M58.7 3.8 65 3.8 65 5.1 60.1 5.1 60.1 8.4 64.8 8.4 64.8 9.7 60.1 9.7 60.1 14.1 65 14.1 65 15.4 58.7 15.4 58.7 3.8 58.7 3.8Z" fill="#003366"/><path d="M78.4 8.5 78.4 3.8 79.9 3.8 79.9 15.5 78.4 15.5 78.4 9.9 72.8 9.9 72.8 15.5 71.3 15.5 71.3 3.8 72.8 3.8 72.8 8.5 78.4 8.5 78.4 8.5Z" fill="#003366"/><path d="M93.6 9.6C93.6 13.1 90.8 15.7 87.5 15.7 84.1 15.7 81.4 13.1 81.4 9.6 81.4 6.3 84.2 3.5 87.5 3.5 90.8 3.6 93.6 6.3 93.6 9.6ZM92.1 9.6C92.1 7.1 90.2 4.9 87.5 4.9 84.7 4.9 82.9 7.1 82.9 9.6 82.9 12.3 85 14.3 87.5 14.3 90 14.3 92.1 12.3 92.1 9.6Z" fill="#003366"/><path d="M95 3.2 103.8 12.4 103.8 3.8 105.3 3.8 105.3 15.9 96.5 6.7 96.5 15.4 95 15.4 95 3.2Z" fill="#003366"/><path d="M118.1 9.6 118.1 10C118.1 13.2 115.8 15.7 112.6 15.7 109.3 15.7 106.7 12.9 106.7 9.6 106.7 6.2 109.4 3.5 112.8 3.5 114.6 3.5 116.4 4.3 117.5 5.8L116.5 6.8C115.7 5.7 114.3 4.9 112.9 4.9 110.3 4.9 108.3 7 108.3 9.6 108.3 12 110.3 14.3 112.8 14.3 114.6 14.3 116.6 12.7 116.7 10.8L113.7 10.8 113.7 9.6 118.1 9.6 118.1 9.6 118.1 9.6Z" fill="#003366"/><path d="M130.7 3.8 132.6 3.8 127.4 9 132.7 15.4 130.7 15.4 126.3 9.9 125.7 10.5 125.7 15.4 124.2 15.4 124.2 3.8 125.7 3.8 125.7 8.9 130.7 3.8Z" fill="#003366"/><path d="M145.2 9.6C145.2 13.1 142.4 15.7 139.1 15.7 135.8 15.7 133 13.1 133 9.6 133 6.3 135.8 3.5 139.1 3.5 142.4 3.6 145.2 6.3 145.2 9.6ZM143.7 9.6C143.7 7.1 141.8 4.9 139.1 4.9 136.3 4.9 134.5 7.1 134.5 9.6 134.5 12.3 136.6 14.3 139.1 14.3 141.6 14.3 143.7 12.3 143.7 9.6Z" fill="#003366"/><path d="M146.6 3.2 155.4 12.4 155.4 3.8 156.9 3.8 156.9 15.9 148.1 6.7 148.1 15.4 146.6 15.4 146.6 3.2Z" fill="#003366"/><path d="M169.8 9.6 169.8 10C169.8 13.2 167.5 15.7 164.3 15.7 161.1 15.7 158.4 12.9 158.4 9.6 158.4 6.2 161.1 3.5 164.5 3.5 166.3 3.5 168.1 4.3 169.2 5.8L168.2 6.8C167.4 5.7 166 4.9 164.6 4.9 162 4.9 160 7 160 9.6 160 12 162 14.3 164.5 14.3 166.3 14.3 168.3 12.7 168.4 10.8L165.4 10.8 165.4 9.6 169.8 9.6 169.8 9.6 169.8 9.6Z" fill="#003366"/><path d="M42.1 22.3 42.1 29.2C42.1 31.1 42.7 32.8 44.9 32.8 47.1 32.8 47.7 31 47.7 29.2L47.7 22.3 49.2 22.3 49.2 29.7C49.2 32.2 47.6 34.2 44.9 34.2 42.2 34.2 40.6 32.2 40.6 29.7L40.6 22.3 42.1 22.3Z" fill="#003366"/><path d="M51.2 21.8 60 31 60 22.3 61.5 22.3 61.5 34.4 52.7 25.2 52.7 34 51.2 34 51.2 21.8Z" fill="#003366"/><path d="M65.1 34.1 63.6 34.1 63.6 22.3 65.1 22.3 65.1 34.1Z" fill="#003366"/><path d="M71.3 31.1 74.8 22.5 76.4 22.5 71.3 34.8 66.2 22.4 67.8 22.4 71.3 31.1Z" fill="#003366"/><path d="M77.5 22.3 83.8 22.3 83.8 23.6 78.9 23.6 78.9 27 83.6 27 83.6 28.3 78.9 28.3 78.9 32.7 83.8 32.7 83.8 34 77.5 34 77.5 22.3Z" fill="#003366"/><path d="M93 34.1 91.2 34.1 87.8 29.1 87.2 29.1 87.2 34.1 85.7 34.1 85.7 22.3 87.5 22.3C88.5 22.3 89.7 22.3 90.6 22.9 91.6 23.5 92.1 24.6 92.1 25.7 92.1 27.4 91 28.8 89.3 29L93 34.1ZM87.2 27.9 87.7 27.9C89.2 27.9 90.8 27.6 90.8 25.8 90.8 24 89.1 23.7 87.6 23.7L87.2 23.7 87.2 27.9 87.2 27.9Z" fill="#003366"/><path d="M99.5 24.6C99.1 23.9 98.5 23.5 97.6 23.5 96.7 23.5 95.7 24.1 95.7 25.2 95.7 26.1 96.6 26.6 97.3 26.9L98.1 27.2C99.8 27.9 101 28.8 101 30.7 101 32.8 99.3 34.3 97.2 34.3 95.3 34.3 93.8 32.9 93.6 31L95.1 30.7C95.1 32 96.1 32.9 97.4 32.9 98.7 32.9 99.6 31.8 99.6 30.6 99.6 29.4 98.6 28.8 97.6 28.4L96.8 28.1C95.5 27.5 94.3 26.8 94.3 25.1 94.3 23.2 96 22.1 97.7 22.1 99 22.1 100.1 22.7 100.7 23.9L99.5 24.6Z" fill="#003366"/><path d="M104.2 34.1 102.7 34.1 102.7 22.3 104.2 22.3 104.2 34.1Z" fill="#003366"/><path d="M109.7 34.1 108.2 34.1 108.2 23.7 105.4 23.7 105.4 22.4 112.4 22.4 112.4 23.7 109.6 23.7 109.7 34.1 109.7 34.1 109.7 34.1Z" fill="#003366"/><path d="M112.5 22.3 114.2 22.3 117.1 27.3 120 22.3 121.7 22.3 117.9 28.9 117.9 34 116.4 34 116.4 29 112.5 22.3Z" fill="#003366"/><path d="M138.8 28.2C138.8 31.7 136 34.3 132.7 34.3 129.3 34.3 126.6 31.7 126.6 28.2 126.6 24.9 129.4 22.1 132.7 22.1 136 22.1 138.8 24.9 138.8 28.2ZM137.4 28.2C137.4 25.7 135.5 23.5 132.8 23.5 130.1 23.5 128.2 25.7 128.2 28.2 128.2 30.9 130.3 32.9 132.8 32.9 135.2 32.9 137.4 30.9 137.4 28.2Z" fill="#003366"/><path d="M141.9 23.7 141.9 27 146 27 146 28.3 141.9 28.3 141.9 34 140.4 34 140.4 22.3 146 22.3 146 23.6 141.9 23.7 141.9 23.7Z" fill="#003366"/><path d="M157.8 24.6C157.4 23.9 156.8 23.5 155.9 23.5 155 23.5 154 24.1 154 25.2 154 26.1 154.9 26.6 155.6 26.9L156.4 27.2C158.1 27.9 159.3 28.8 159.3 30.7 159.3 32.8 157.6 34.3 155.5 34.3 153.6 34.3 152.1 32.9 151.9 31L153.4 30.7C153.4 32 154.4 32.9 155.7 32.9 156.9 32.9 157.9 31.8 157.9 30.6 157.9 29.4 156.9 28.8 155.9 28.4L155.1 28.1C153.8 27.5 152.6 26.8 152.6 25.1 152.6 23.2 154.3 22.1 156 22.1 157.3 22.1 158.4 22.7 159 23.9L157.8 24.6Z" fill="#003366"/><path d="M169.5 24.6C168.7 23.9 167.5 23.5 166.4 23.5 163.8 23.5 161.8 25.7 161.8 28.2 161.8 30.7 163.8 32.9 166.4 32.9 167.5 32.9 168.6 32.5 169.5 31.7L169.5 33.4C168.6 33.9 167.4 34.2 166.4 34.2 163.1 34.2 160.3 31.6 160.3 28.1 160.3 24.6 163.1 21.9 166.5 21.9 167.5 21.9 168.6 22.1 169.4 22.7L169.4 24.6 169.5 24.6Z" fill="#003366"/><path d="M172.8 34.1 171.3 34.1 171.3 22.3 172.8 22.3 172.8 34.1 172.8 34.1Z" fill="#003366"/><path d="M175.2 22.3 181.5 22.3 181.5 23.6 176.6 23.6 176.6 27 181.3 27 181.3 28.3 176.6 28.3 176.6 32.7 181.5 32.7 181.5 34 175.2 34 175.2 22.3Z" fill="#003366"/><path d="M183.3 21.8 192.1 31 192.1 22.3 193.6 22.3 193.6 34.4 184.8 25.2 184.8 34 183.3 34 183.3 21.8 183.3 21.8Z" fill="#003366"/><path d="M204.2 24.6C203.4 23.9 202.2 23.5 201.1 23.5 198.5 23.5 196.5 25.7 196.5 28.2 196.5 30.7 198.5 32.9 201.1 32.9 202.2 32.9 203.3 32.5 204.2 31.7L204.2 33.4C203.3 33.9 202.1 34.2 201.1 34.2 197.8 34.2 195 31.6 195 28.1 195 24.6 197.8 21.9 201.2 21.9 202.2 21.9 203.3 22.1 204.1 22.7L204.2 24.6 204.2 24.6Z" fill="#003366"/><path d="M206.1 22.3 212.4 22.3 212.4 23.6 207.5 23.6 207.5 27 212.2 27 212.2 28.3 207.5 28.3 207.5 32.7 212.4 32.7 212.4 34 206.1 34 206.1 22.3 206.1 22.3Z" fill="#003366"/><path d="M42.5 49.7 41.2 52.6 39.6 52.6 45.2 40.4 50.8 52.6 49.2 52.6 47.9 49.7 42.5 49.7ZM45.2 43.7 43.1 48.4 47.3 48.4 45.2 43.7Z" fill="#003366"/><path d="M51.8 40.4 60.6 49.6 60.6 41 62 41 62 53.1 53.2 43.9 53.2 52.6 51.7 52.6 51.7 40.4Z" fill="#003366"/><path d="M64 41 66.4 41C70 41 72.9 42.9 72.9 46.8 72.9 50.8 70 52.7 66.3 52.7L64 52.7 64 41ZM65.5 51.3 66 51.3C69 51.3 71.6 50.2 71.6 46.8 71.6 43.4 69 42.4 66 42.4L65.5 42.4 65.5 51.3Z" fill="#003366"/><path d="M82.5 52.7 81 52.7 81 42.3 78.2 42.3 78.2 41 85.2 41 85.2 42.3 82.4 42.3 82.5 52.7 82.5 52.7Z" fill="#003366"/><path d="M86.5 41 92.8 41 92.8 42.3 87.9 42.3 87.9 45.6 92.6 45.6 92.6 46.9 87.9 46.9 87.9 51.3 92.8 51.3 92.8 52.6 86.5 52.6 86.5 41 86.5 41 86.5 41Z" fill="#003366"/><path d="M103.2 43.2C102.4 42.5 101.2 42.1 100.1 42.1 97.5 42.1 95.5 44.3 95.5 46.8 95.5 49.3 97.5 51.5 100.1 51.5 101.2 51.5 102.3 51.1 103.2 50.3L103.2 52C102.3 52.5 101.1 52.8 100.1 52.8 96.8 52.8 94 50.2 94 46.7 94 43.2 96.8 40.5 100.2 40.5 101.2 40.5 102.3 40.7 103.1 41.3L103.2 43.2 103.2 43.2Z" fill="#003366"/><path d="M112 45.7 112 41 113.5 41 113.5 52.7 112 52.7 112 47.1 106.4 47.1 106.4 52.7 105 52.7 105 41 106.5 41 106.5 45.7 112 45.7Z" fill="#003366"/><path d="M115.6 40.4 124.4 49.6 124.4 41 125.9 41 125.9 53.1 117.1 43.9 117.1 52.6 115.6 52.6 115.6 40.4Z" fill="#003366"/><path d="M139.5 46.8C139.5 50.3 136.7 52.9 133.4 52.9 130.1 52.9 127.3 50.3 127.3 46.8 127.3 43.5 130.1 40.7 133.4 40.7 136.7 40.7 139.5 43.4 139.5 46.8ZM138 46.8C138 44.3 136.1 42.1 133.4 42.1 130.6 42.1 128.8 44.3 128.8 46.8 128.8 49.5 130.9 51.5 133.4 51.5 135.9 51.6 138 49.5 138 46.8Z" fill="#003366"/><path d="M142.5 51.3 146 51.3 146 52.6 141 52.6 141 41 142.5 41 142.5 51.3 142.5 51.3Z" fill="#003366"/><path d="M158.6 46.8C158.6 50.3 155.8 52.9 152.5 52.9 149.2 52.9 146.4 50.3 146.4 46.8 146.4 43.5 149.2 40.7 152.5 40.7 155.8 40.7 158.6 43.4 158.6 46.8ZM157.1 46.8C157.1 44.3 155.2 42.1 152.5 42.1 149.7 42.1 147.9 44.3 147.9 46.8 147.9 49.5 150 51.5 152.5 51.5 155 51.5 157.1 49.5 157.1 46.8Z" fill="#003366"/><path d="M170.8 46.7 170.8 47.2C170.8 50.4 168.5 52.9 165.3 52.9 162 52.9 159.4 50.1 159.4 46.8 159.4 43.4 162.1 40.7 165.5 40.7 167.3 40.7 169.1 41.5 170.2 43L169.2 44C168.4 42.9 167 42.1 165.6 42.1 163 42.1 161 44.2 161 46.8 161 49.2 163 51.5 165.5 51.5 167.3 51.5 169.3 49.9 169.4 48L166.4 48 166.4 46.8 170.8 46.7 170.8 46.7 170.8 46.7Z" fill="#003366"/><path d="M171.2 41 172.9 41 175.8 46 178.7 41 180.4 41 176.6 47.6 176.6 52.7 175.1 52.7 175.1 47.6 171.2 41Z" fill="#003366"/></g><g><g><path d="M25.6 52.9 19.6 43C19.6 43 19.4 42.8 19.4 42.4L19.4 42.2 19.4 41.7 19.4 23.9 17.1 23.9 17.1 42.4 17.1 43C17.3 43.2 21.1 49.6 21.1 49.6L11.8 49.6C11.8 49.6 15.6 43.2 15.8 43L15.8 42.4 15.8 23.9 13.5 23.9 13.5 41.7 13.5 42.2 13.5 42.4C13.5 42.8 13.3 43 13.3 43L7.3 52.9 25.6 52.9 25.6 52.9Z" fill="#996600"/></g><g><path d="M23.8 11C23.8 11 24.9 6.4 20.9 3.3 20.9 3.3 19.3 1.9 16.3 1.9 13.5 1.9 12 3.3 12 3.3 8.2 5.8 9.1 11 9.1 11L23.8 11Z" fill="#996600"/><path d="M9.6 12.3 23.3 12.3C23.4 12.1 23.5 11.8 23.6 11.5L9.3 11.5C9.4 11.7 9.5 12 9.6 12.3Z" fill="#996600"/><path d="M23.2 12.7 9.8 12.7C9.9 13 10.1 13.3 10.3 13.5L22.7 13.5C22.9 13.3 23 13 23.2 12.7Z" fill="#996600"/><path d="M11.2 14.6 21.8 14.6C22 14.4 22.2 14.2 22.4 13.9L10.6 13.9C10.8 14.2 11 14.5 11.2 14.6Z" fill="#996600"/><path d="M12.3 15.6 20.6 15.6C20.8 15.5 21 15.3 21.2 15.1L11.6 15.1C11.9 15.3 12.1 15.5 12.3 15.6Z" fill="#996600"/><path d="M13.5 16.3C14.4 16.7 15.4 17 16.5 17 17.6 17 18.6 16.8 19.5 16.3L13.5 16.3Z" fill="#996600"/></g><path d="M30.7 17.3 19.5 17.3C19.5 17.3 18.5 17.3 17.6 17.9 16.9 18.3 16.5 19.4 16.5 19.4L16.5 19.4C16.5 19.4 16 18.3 15.4 17.9 14.6 17.3 13.5 17.3 13.5 17.3L2.2 17.3 0 20.9 10.3 20.9C10.3 20.9 10.6 20.9 10.8 20.9 11.1 20.9 11.6 21.1 12.2 21.5 13 22.1 13.2 22.3 13.4 22.5 13.5 22.6 13.7 22.9 13.7 22.9L16.2 22.9 16.5 22.9 16.5 22.9 17.4 22.9 19.3 22.9C19.3 22.9 19.5 22.6 19.6 22.5 19.8 22.3 20 22 20.8 21.5 21.4 21.1 21.9 20.9 22.2 20.9 22.4 20.9 22.7 20.9 22.7 20.9L33 20.9 30.7 17.3Z" fill="#003366"/><g><g><path d="M1.1 22 1.1 38.9C1.1 38.9 1.1 39.1 1.1 39.1 1.1 39.3 1.1 39.5 1.1 39.6 1.3 41.4 1.8 42.8 2.9 44.5 4.6 47.3 7.5 49.2 7.5 49.2L9 46.9C9 46.9 7.1 45.9 5.6 43.5 5.3 43 5 42.6 4.8 42.2 4.6 41.8 4.5 41.5 4.3 41.1 4.2 40.9 4.2 40.6 4.1 40.4 4 40.1 4 39.8 4 39.6 4 39.5 4 39.1 4 39.1L4 39 4 22 1.1 22Z" fill="#003366"/><path d="M5.4 22 5.4 39C5.4 39 5.4 39.1 5.4 39.1 5.4 39.1 5.4 39.3 5.4 39.4 5.4 39.5 5.4 39.5 5.4 39.6 5.4 39.8 5.5 40.1 5.6 40.4 5.8 41 6.2 41.7 6.6 42.5 7.8 44.6 9.7 45.5 9.7 45.5L11.1 43.3C11.1 43.3 10.6 43.1 10.1 42.5 9.7 42.1 9.3 41.7 8.9 41.1 8.5 40.5 8.3 39.9 8.2 39.5 8.1 39.1 8 38.8 8 38.6 8 38.5 8 38.4 8 38.4L8 22 5.4 22Z" fill="#003366"/></g><g><path d="M31.9 22 31.9 38.9C31.9 38.9 31.9 39.1 31.9 39.1 31.9 39.3 31.9 39.5 31.9 39.6 31.7 41.4 31.2 42.8 30.1 44.5 28.4 47.3 25.5 49.2 25.5 49.2L24 46.9C24 46.9 25.9 45.9 27.4 43.5 27.7 43 28 42.6 28.2 42.2 28.4 41.8 28.5 41.5 28.7 41.1 28.8 40.9 28.8 40.6 28.9 40.4 29 40.1 29 39.8 29 39.6 29 39.5 29 39.1 29 39.1L29 39 29 22 31.9 22Z" fill="#003366"/><path d="M27.6 22 27.6 39C27.6 39 27.6 39.1 27.6 39.1 27.6 39.1 27.6 39.3 27.6 39.4 27.6 39.5 27.6 39.5 27.6 39.6 27.6 39.8 27.5 40.1 27.4 40.4 27.2 41 26.8 41.7 26.4 42.5 25.2 44.6 23.3 45.5 23.3 45.5L21.9 43.3C21.9 43.3 22.4 43.1 22.9 42.5 23.3 42.1 23.7 41.7 24.1 41.1 24.5 40.5 24.7 39.9 24.8 39.5 24.9 39.1 24.9 38.8 24.9 38.7 24.9 38.6 24.9 38.5 24.9 38.5L24.9 22 27.6 22Z" fill="#003366"/></g></g></g></g><line x1="229.9" y1="0" x2="229.9" y2="55" stroke="#003366" stroke-miterlimit="10" fill="none"/><g><path d="M258.1 25.7 258.1 19 260.2 19 260.2 35.6 258.1 35.6 258.1 27.6 250.2 27.6 250.2 35.6 248.1 35.6 248.1 19 250.2 19 250.2 25.7 258.1 25.7Z" fill="#003366"/><path d="M272.3 19 275 19 267.5 26.5 275.1 35.6 272.3 35.6 266.1 27.9 265.3 28.7 265.3 35.6 263.2 35.6 263.2 19 265.3 19 265.3 26.2 272.3 19Z" fill="#003366"/><path d="M278.1 19 278.1 28.8C278.1 31.5 278.9 34 282.1 34 285.3 34 286.1 31.5 286.1 28.8L286.1 19 288.2 19 288.2 29.5C288.2 33.2 285.9 35.9 282.1 35.9 278.3 35.9 276 33.1 276 29.5L276 19 278.1 19Z" fill="#003366"/><path d="M298.4 22.1C297.8 21.1 297 20.5 295.7 20.5 294.4 20.5 292.9 21.4 292.9 22.9 292.9 24.2 294.2 24.9 295.2 25.3L296.4 25.8C298.8 26.7 300.5 28 300.5 30.8 300.5 33.8 298.2 36 295.2 36 292.5 36 290.4 34 290.1 31.4L292.2 31C292.2 32.8 293.6 34.1 295.4 34.1 297.2 34.1 298.5 32.6 298.5 30.9 298.5 29.1 297.1 28.3 295.6 27.8L294.5 27.3C292.6 26.5 290.9 25.4 290.9 23.1 290.9 20.4 293.3 18.8 295.8 18.8 297.6 18.8 299.2 19.7 300.1 21.3L298.4 22.1Z" fill="#003366"/><path d="M307.4 35.6 305.3 35.6 305.3 20.9 301.4 20.9 301.4 19 311.3 19 311.3 20.9 307.4 20.9 307.4 35.6Z" fill="#003366"/><path d="M334.4 27.2 334.4 27.9C334.4 32.5 331.2 36 326.5 36 321.8 36 318.1 32 318.1 27.4 318.1 22.6 321.9 18.7 326.7 18.7 329.3 18.7 331.8 19.9 333.5 21.9L332 23.3C330.8 21.7 328.8 20.6 326.8 20.6 323.1 20.6 320.2 23.6 320.2 27.3 320.2 30.8 323.1 34.1 326.6 34.1 329.2 34.1 331.9 31.9 332 29.2L327.7 29.2 327.7 27.3 334.4 27.3Z" fill="#003366"/><path d="M346.8 35.6 344.3 35.6 339.4 28.6 338.5 28.6 338.5 35.6 336.4 35.6 336.4 19 338.9 19C340.4 19 342 19 343.3 19.8 344.7 20.6 345.5 22.2 345.5 23.8 345.5 26.2 343.9 28.2 341.5 28.4L346.8 35.6ZM338.5 26.8 339.2 26.8C341.3 26.8 343.6 26.4 343.6 23.8 343.6 21.2 341.1 20.8 339.1 20.8L338.6 20.8 338.6 26.8Z" fill="#003366"/><path d="M350.7 31.4 348.8 35.6 346.6 35.6 354.5 18.3 362.4 35.6 360.2 35.6 358.3 31.4 350.7 31.4ZM354.5 22.8 351.6 29.5 357.5 29.5 354.5 22.8Z" fill="#003366"/><path d="M365.9 35.6 363.8 35.6 363.8 19 366.2 19C371.3 19 372.9 20.8 372.9 23.8 372.9 27.3 370.2 28.6 367.1 28.6L365.9 28.6 365.9 35.6ZM365.9 26.8 366.6 26.8C368.7 26.8 371 26.4 371 23.8 371 21.2 368.5 20.9 366.5 20.9L366 20.9 366 26.8Z" fill="#003366"/><path d="M384.5 25.7 384.5 19 386.6 19 386.6 35.6 384.5 35.6 384.5 27.6 376.6 27.6 376.6 35.6 374.5 35.6 374.5 19 376.6 19 376.6 25.7 384.5 25.7Z" fill="#003366"/><path d="M391.6 35.6 389.5 35.6 389.5 19 391.6 19 391.6 35.6Z" fill="#003366"/><path d="M406.8 22.1C405.6 21 404 20.5 402.4 20.5 398.7 20.5 395.8 23.6 395.8 27.3 395.8 30.9 398.6 34 402.3 34 403.9 34 405.5 33.4 406.7 32.3L406.7 34.7C405.4 35.4 403.8 35.9 402.3 35.9 397.6 35.9 393.7 32.1 393.7 27.3 393.7 22.4 397.6 18.6 402.5 18.6 404 18.6 405.4 19 406.7 19.7L406.7 22.1Z" fill="#003366"/><path d="M417.6 35.6 415.5 35.6 415.5 19 417.6 19 417.6 35.6Z" fill="#003366"/><path d="M420.5 19 423.9 19C429 19 433.2 21.7 433.2 27.2 433.2 32.9 429.1 35.6 423.8 35.6L420.4 35.6 420.4 19ZM422.6 33.7 423.3 33.7C427.5 33.7 431.2 32.1 431.2 27.3 431.2 22.5 427.5 20.9 423.3 20.9L422.6 20.9 422.6 33.7Z" fill="#003366"/><path d="M435.3 19 444.2 19 444.2 20.9 437.4 20.9 437.4 25.5 444 25.5 444 27.4 437.4 27.4 437.4 33.7 444.2 33.7 444.2 35.6 435.3 35.6 435.3 19Z" fill="#003366"/><path d="M446.6 18.2 459.1 31.2 459.1 19 461.2 19 461.2 36.3 448.7 23.3 448.7 35.7 446.6 35.7 446.6 18.2Z" fill="#003366"/><path d="M468.5 35.6 466.4 35.6 466.4 20.9 462.5 20.9 462.5 19 472.4 19 472.4 20.9 468.5 20.9 468.5 35.6Z" fill="#003366"/><path d="M476.1 35.6 474 35.6 474 19 476.1 19 476.1 35.6Z" fill="#003366"/><path d="M483.7 35.6 481.6 35.6 481.6 20.9 477.7 20.9 477.7 19 487.6 19 487.6 20.9 483.7 20.9 483.7 35.6Z" fill="#003366"/><path d="M487.5 19 489.9 19 494 26 498 19 500.4 19 495 28.4 495 35.6 492.9 35.6 492.9 28.4 487.5 19Z" fill="#003366"/></g></svg>